control3min_grf.mot
version=1
nRows=22
nColumns 19
inDegrees=yes
endheader
time	1_ground_force_vx	1_ground_force_vy	1_ground_force_vz	1_ground_force_px	1_ground_force_py	1_ground_force_pz	1_ground_torque_x	1_ground_torque_y	1_ground_torque_z	2_ground_force_vx	2_ground_force_vy	2_ground_force_vz	2_ground_force_px	2_ground_force_py	2_ground_force_pz	2_ground_torque_x	2_ground_torque_y	2_ground_torque_z
            3.751500	            0.047943	           -0.904662	            0.775572	           -0.233013	            0.005581	           -0.255695	           -0.671990	            0.315968	           -0.408548	            0.372497	            0.556309	           -0.702110	           -0.232311	            0.006130	           -0.833667	           -0.357128	            0.064611	            0.075789
            3.752000	           -0.272697	           -1.085383	            0.867307	           -0.233013	            0.005581	           -0.255695	           -0.676029	            0.445553	           -0.496852	            0.427343	           -1.653469	           -0.663086	           -0.232311	            0.006130	           -0.833667	           -0.263021	            0.008436	            0.018996
            3.752500	           -0.272811	           -1.085186	            0.821451	           -0.233013	            0.005581	           -0.255695	           -0.598905	            0.260617	           -0.479038	            0.331711	           -1.101865	           -0.520291	           -0.232311	            0.006130	           -0.833667	           -0.375939	            0.073929	            0.094681
            3.753000	           -0.272113	           -0.545765	            1.144762	           -0.233013	            0.005581	           -0.255695	           -0.669201	           -0.035174	           -0.480151	            0.426075	           -1.285675	           -0.520988	           -0.232311	            0.006130	           -0.833667	           -0.413611	            0.092968	            0.019363
            3.753500	           -0.317776	           -0.906502	            1.189185	           -0.233013	            0.005581	           -0.255695	           -0.595663	           -0.248019	           -0.426794	            0.326373	            0.371489	           -0.561963	           -0.232311	            0.006130	           -0.833667	           -0.357060	            0.054890	            0.151156
            3.754000	           -0.135087	           -0.905287	            0.913595	           -0.233013	            0.005581	           -0.255695	           -0.659103	           -0.192335	           -0.456175	            0.519631	           -1.284165	           -0.849524	           -0.232311	            0.006130	           -0.833667	           -0.225817	            0.112484	            0.038201
            3.754500	           -0.272664	           -1.265648	            0.866534	           -0.233013	            0.005581	           -0.255695	           -0.657173	            0.112955	           -0.535915	            0.419991	            0.372497	           -0.749715	           -0.232311	            0.006130	           -0.833667	           -0.300984	            0.121598	            0.057117
            3.755000	            0.139596	           -0.724378	            0.776117	           -0.233013	            0.005581	           -0.255695	           -0.615783	            0.334508	           -0.404705	            0.379869	           -1.469825	           -0.568553	           -0.232311	            0.006130	           -0.833667	           -0.263158	            0.055430	            0.094565
            3.755500	            0.002067	           -0.724405	            0.776459	           -0.233013	            0.005581	           -0.255695	           -0.653542	            0.408707	           -0.485350	            0.280209	            0.187004	           -0.515672	           -0.232311	            0.006130	           -0.833667	           -0.375911	            0.046176	           -0.075072
            3.756000	           -0.181176	           -0.184037	            0.870944	           -0.233013	            0.005581	           -0.255695	           -0.582556	            0.214286	           -0.437804	            0.326997	            0.187676	           -0.656476	           -0.232311	            0.006130	           -0.833667	           -0.375692	            0.007693	            0.113295
            3.756500	           -0.226677	           -0.184635	            1.008626	           -0.233013	            0.005581	           -0.255695	           -0.663417	           -0.063128	           -0.421949	            0.425349	           -1.101024	           -0.661115	           -0.232311	            0.006130	           -0.833667	           -0.263251	            0.074538	            0.038082
            3.757000	           -0.409822	           -0.185064	            1.100793	           -0.233013	            0.005581	           -0.255695	           -0.667257	           -0.303619	           -0.411992	            0.377211	           -0.733232	           -0.565925	           -0.232311	            0.006130	           -0.833667	           -0.244552	            0.102829	            0.075876
            3.757500	           -0.181125	           -1.085168	            0.821224	           -0.233013	            0.005581	           -0.255695	           -0.673729	           -0.109413	           -0.401337	            0.282826	           -0.549254	           -0.612156	           -0.232311	            0.006130	           -0.833667	           -0.357120	            0.073728	            0.170073
            3.758000	           -0.181275	            0.356760	            0.873263	           -0.233013	            0.005581	           -0.255695	           -0.676617	            0.177053	           -0.381355	            0.283491	           -0.733403	           -0.612813	           -0.232311	            0.006130	           -0.833667	           -0.338351	            0.073930	            0.132365
            3.758500	            0.047991	           -0.544327	            0.822974	           -0.233013	            0.005581	           -0.255695	           -0.599192	            0.371605	           -0.446100	            0.281538	           -0.181292	           -0.516986	           -0.232311	            0.006130	           -0.833667	           -0.338401	            0.074333	            0.019264
            3.759000	            0.002441	           -0.905260	            0.913253	           -0.233013	            0.005581	           -0.255695	           -0.621369	            0.380343	           -0.335160	            0.470225	           -0.548578	           -0.612236	           -0.232311	            0.006130	           -0.833667	           -0.356982	            0.017549	            0.019069
            3.759500	           -0.272715	           -0.364517	            0.916255	           -0.233013	            0.005581	           -0.255695	           -0.640756	            0.149611	           -0.460638	            0.234147	            0.001683	           -0.234740	           -0.232311	            0.006130	           -0.833667	           -0.375819	            0.036253	            0.056845
            3.760000	           -0.272260	           -0.365303	            1.099679	           -0.233013	            0.005581	           -0.255695	           -0.629703	           -0.155493	           -0.443175	            0.282867	           -0.549589	           -0.518300	           -0.232311	            0.006130	           -0.833667	           -0.375903	            0.055292	            0.019212
            3.760500	           -0.318247	           -1.446316	            0.957587	           -0.233013	            0.005581	           -0.255695	           -0.698540	           -0.275132	           -0.577020	            0.376505	           -0.548749	           -0.659124	           -0.232311	            0.006130	           -0.833667	           -0.263278	            0.093107	            0.132401
            3.761000	           -0.089262	           -0.184412	            0.962429	           -0.233013	            0.005581	           -0.255695	           -0.586309	           -0.081619	           -0.397558	            0.282202	           -0.365441	           -0.517643	           -0.232311	            0.006130	           -0.833667	           -0.375972	            0.074198	            0.019280
            3.761500	           -0.226432	           -0.905895	            1.051390	           -0.233013	            0.005581	           -0.255695	           -0.552332	            0.241927	           -0.420891	            0.472802	           -1.284501	           -0.802576	           -0.232311	            0.006130	           -0.833667	           -0.319701	            0.102625	            0.057057
            3.762000	           -0.319256	           -0.903946	            0.593058	           -0.233013	            0.005581	           -0.255695	           -0.701770	            0.417464	           -0.423677	            0.515746	           -0.180112	           -0.610942	           -0.232311	            0.006130	           -0.833667	           -0.319531	            0.055361	            0.056889
